<svg width="20" height="21" viewBox="0 0 20 21" fill="none" xmlns="http://www.w3.org/2000/svg">
<path opacity="0.4" d="M14.0755 0.513184H17.4615C18.8637 0.513184 20 1.65904 20 3.07315V6.48771C20 7.90182 18.8637 9.04767 17.4615 9.04767H14.0755C12.6732 9.04767 11.537 7.90182 11.537 6.48771V3.07315C11.537 1.65904 12.6732 0.513184 14.0755 0.513184" fill="white"/>
<path fill-rule="evenodd" clip-rule="evenodd" d="M2.53852 0.513184H5.92449C7.32676 0.513184 8.46301 1.65904 8.46301 3.07315V6.48771C8.46301 7.90182 7.32676 9.04767 5.92449 9.04767H2.53852C1.13626 9.04767 0 7.90182 0 6.48771V3.07315C0 1.65904 1.13626 0.513184 2.53852 0.513184ZM2.53852 11.9787H5.92449C7.32676 11.9787 8.46301 13.1245 8.46301 14.5387V17.9532C8.46301 19.3664 7.32676 20.5132 5.92449 20.5132H2.53852C1.13626 20.5132 0 19.3664 0 17.9532V14.5387C0 13.1245 1.13626 11.9787 2.53852 11.9787ZM17.4615 11.9787H14.0755C12.6732 11.9787 11.537 13.1245 11.537 14.5387V17.9532C11.537 19.3664 12.6732 20.5132 14.0755 20.5132H17.4615C18.8637 20.5132 20 19.3664 20 17.9532V14.5387C20 13.1245 18.8637 11.9787 17.4615 11.9787Z" fill="white"/>
</svg>
