<svg width="24" height="25" viewBox="0 0 24 25" fill="none" xmlns="http://www.w3.org/2000/svg">
<path opacity="0.4" d="M13.3051 6.39561V6.57866C12.8144 6.56902 12.3237 6.56902 11.8331 6.56902V6.40525C11.8331 5.74051 11.2737 5.20102 10.6064 5.20102H9.63484C8.52591 5.20102 7.62306 4.31471 7.62306 3.23572C7.62306 2.84073 7.95672 2.51318 8.35908 2.51318C8.77125 2.51318 9.09509 2.84073 9.09509 3.23572C9.09509 3.52473 9.34043 3.75595 9.63484 3.75595H10.6064C12.0882 3.76558 13.2953 4.95054 13.3051 6.39561" fill="#3D3D3E"/>
<path fill-rule="evenodd" clip-rule="evenodd" d="M15.164 6.59586C15.4791 6.60018 15.7949 6.60451 16.1119 6.60775C19.5172 6.60775 22 9.03547 22 12.388V16.6944C22 20.0469 19.5172 22.4746 16.1119 22.4746C14.7478 22.5035 13.3837 22.5132 12.0098 22.5132C10.6359 22.5132 9.25221 22.5035 7.88813 22.4746C4.48283 22.4746 2 20.0469 2 16.6944V12.388C2 9.03547 4.48283 6.60775 7.89794 6.60775C9.18351 6.58848 10.4985 6.56921 11.8332 6.56921C12.3238 6.56921 12.8145 6.56921 13.3052 6.57885C13.9238 6.57885 14.5425 6.58733 15.164 6.59586ZM10.8518 15.2589H9.82139V16.2801C9.82139 16.6751 9.48773 17.0026 9.08538 17.0026C8.67321 17.0026 8.34936 16.6751 8.34936 16.2801V15.2589H7.30913C6.90677 15.2589 6.57311 14.941 6.57311 14.5364C6.57311 14.1414 6.90677 13.8138 7.30913 13.8138H8.34936V12.8023C8.34936 12.4073 8.67321 12.0798 9.08538 12.0798C9.48773 12.0798 9.82139 12.4073 9.82139 12.8023V13.8138H10.8518C11.2542 13.8138 11.5878 14.1414 11.5878 14.5364C11.5878 14.941 11.2542 15.2589 10.8518 15.2589ZM15.0226 13.6308H15.1207C15.5231 13.6308 15.8567 13.3129 15.8567 12.9083C15.8567 12.5133 15.5231 12.1857 15.1207 12.1857H15.0226C14.6104 12.1857 14.2866 12.5133 14.2866 12.9083C14.2866 13.3129 14.6104 13.6308 15.0226 13.6308ZM16.7007 16.9448H16.7988C17.2012 16.9448 17.5348 16.6269 17.5348 16.2223C17.5348 15.8273 17.2012 15.4998 16.7988 15.4998H16.7007C16.2885 15.4998 15.9647 15.8273 15.9647 16.2223C15.9647 16.6269 16.2885 16.9448 16.7007 16.9448Z" fill="#3D3D3E"/>
</svg>
