<svg width="20" height="21" viewBox="0 0 20 21" fill="none" xmlns="http://www.w3.org/2000/svg">
<path d="M11.3051 4.57866V4.39561C11.2953 2.95054 10.0882 1.76558 8.60638 1.75595H7.63484C7.34043 1.75595 7.09509 1.52473 7.09509 1.23572C7.09509 0.840733 6.77125 0.513184 6.35908 0.513184C5.95672 0.513184 5.62306 0.840733 5.62306 1.23572C5.62306 2.31471 6.52591 3.20102 7.63484 3.20102H8.60638C9.2737 3.20102 9.83307 3.74051 9.83307 4.40525V4.56902C10.3237 4.56902 10.8144 4.56902 11.3051 4.57866Z" fill="white"/>
<path fill-rule="evenodd" clip-rule="evenodd" d="M14.1119 4.60775C13.7949 4.60451 13.4791 4.60018 13.164 4.59586C12.5425 4.58733 11.9237 4.57866 11.3051 4.57866C10.8144 4.56902 10.3237 4.56902 9.83307 4.56902C8.49843 4.56902 7.18351 4.58848 5.89794 4.60775C2.48283 4.60775 0 7.03547 0 10.388V14.6944C0 18.0469 2.48283 20.4746 5.88813 20.4746C7.25221 20.5035 8.63592 20.5132 10.0098 20.5132C11.3837 20.5132 12.7478 20.5035 14.1119 20.4746C17.5172 20.4746 20 18.0469 20 14.6944V10.388C20 7.03547 17.5172 4.60775 14.1119 4.60775ZM7.82139 13.2589H8.85182C9.25417 13.2589 9.58783 12.941 9.58783 12.5364C9.58783 12.1414 9.25417 11.8138 8.85182 11.8138H7.82139V10.8023C7.82139 10.4073 7.48773 10.0798 7.08538 10.0798C6.67321 10.0798 6.34936 10.4073 6.34936 10.8023V11.8138H5.30913C4.90677 11.8138 4.57311 12.1414 4.57311 12.5364C4.57311 12.941 4.90677 13.2589 5.30913 13.2589H6.34936V14.2801C6.34936 14.6751 6.67321 15.0026 7.08538 15.0026C7.48773 15.0026 7.82139 14.6751 7.82139 14.2801V13.2589ZM13.1207 11.6308H13.0226C12.6104 11.6308 12.2866 11.3129 12.2866 10.9083C12.2866 10.5133 12.6104 10.1857 13.0226 10.1857H13.1207C13.5231 10.1857 13.8567 10.5133 13.8567 10.9083C13.8567 11.3129 13.5231 11.6308 13.1207 11.6308ZM14.7988 14.9448H14.7007C14.2885 14.9448 13.9647 14.6269 13.9647 14.2223C13.9647 13.8273 14.2885 13.4998 14.7007 13.4998H14.7988C15.2012 13.4998 15.5348 13.8273 15.5348 14.2223C15.5348 14.6269 15.2012 14.9448 14.7988 14.9448Z" fill="white"/>
</svg>
