<svg width="17" height="20" viewBox="0 0 17 20" fill="none" xmlns="http://www.w3.org/2000/svg">
<path d="M16.2844 3.96564L12.5344 0.215637C12.3915 0.0763452 12.1995 -0.00111288 12 1.20845e-05H4.5C4.10218 1.20845e-05 3.72064 0.158047 3.43934 0.439352C3.15804 0.720656 3 1.10219 3 1.50001V3.00001H1.5C1.10218 3.00001 0.720644 3.15805 0.43934 3.43935C0.158035 3.72066 0 4.10219 0 4.50001V18C0 18.3978 0.158035 18.7794 0.43934 19.0607C0.720644 19.342 1.10218 19.5 1.5 19.5H12C12.3978 19.5 12.7794 19.342 13.0607 19.0607C13.342 18.7794 13.5 18.3978 13.5 18V16.5H15C15.3978 16.5 15.7794 16.342 16.0607 16.0607C16.342 15.7794 16.5 15.3978 16.5 15V4.50001C16.5011 4.30048 16.4237 4.10851 16.2844 3.96564V3.96564ZM12 18H1.5V4.50001H8.69063L12 7.80939V18ZM15 15H13.5V7.50001C13.5011 7.30048 13.4237 7.10851 13.2844 6.96564L9.53438 3.21564C9.3915 3.07635 9.19954 2.99889 9 3.00001H4.5V1.50001H11.6906L15 4.80939V15ZM9.75 12C9.75 12.1989 9.67098 12.3897 9.53033 12.5303C9.38968 12.671 9.19891 12.75 9 12.75H4.5C4.30109 12.75 4.11032 12.671 3.96967 12.5303C3.82902 12.3897 3.75 12.1989 3.75 12C3.75 11.8011 3.82902 11.6103 3.96967 11.4697C4.11032 11.329 4.30109 11.25 4.5 11.25H9C9.19891 11.25 9.38968 11.329 9.53033 11.4697C9.67098 11.6103 9.75 11.8011 9.75 12ZM9.75 15C9.75 15.1989 9.67098 15.3897 9.53033 15.5303C9.38968 15.671 9.19891 15.75 9 15.75H4.5C4.30109 15.75 4.11032 15.671 3.96967 15.5303C3.82902 15.3897 3.75 15.1989 3.75 15C3.75 14.8011 3.82902 14.6103 3.96967 14.4697C4.11032 14.329 4.30109 14.25 4.5 14.25H9C9.19891 14.25 9.38968 14.329 9.53033 14.4697C9.67098 14.6103 9.75 14.8011 9.75 15Z" fill="white"/>
</svg>
